<?xml version="1.0" ?><svg data-name="Layer 1" id="Layer_1" viewBox="0 0 512 512" xmlns="http://www.w3.org/2000/svg"><path d="M467.18,39H44.82A5.83,5.83,0,0,0,39,44.82V467.18A5.83,5.83,0,0,0,44.82,473H467.18a5.83,5.83,0,0,0,5.82-5.82V44.82A5.83,5.83,0,0,0,467.18,39Zm-5.83,422.35H50.65V50.65h410.7Z"/><path d="M90.68,394.42h11.59a5.83,5.83,0,0,0,0-11.66H90.68a5.83,5.83,0,0,0,0,11.66Z"/><path d="M135,382.76a5.83,5.83,0,0,0,0,11.66H156.7a5.83,5.83,0,0,0,0-11.66Z"/><path d="M90.68,424.86H191.33a5.83,5.83,0,1,0,0-11.65H90.68a5.83,5.83,0,1,0,0,11.65Z"/><path d="M104.26,188.58c0,45.9,13.17,104.68,18.83,127.83a18.12,18.12,0,0,0,35.65-2.87c4.71-56.9,15.74-82.81,24-82.81s19.32,25.91,24,82.81a18.13,18.13,0,0,0,35.66,2.85c3.34-13.64,9.29-39.69,13.61-68.19,4.32,28.5,10.27,54.55,13.61,68.19a18.13,18.13,0,0,0,35.66-2.87c4.67-56.88,15.7-82.79,24-82.79s19.29,25.91,24,82.81a18.12,18.12,0,0,0,35.65,2.85c5.66-23.13,18.83-81.91,18.83-127.81,0-6.72.17-13.06.34-19,.6-23.09,1.09-41.33-9.67-52.38-6.82-7-17.17-10.26-32.56-10.26H292.67c-15.39,0-25.74,3.26-32.56,10.26a27.75,27.75,0,0,0-4.11,5.45,27.75,27.75,0,0,0-4.11-5.45c-6.82-7-17.17-10.26-32.56-10.26H146.15c-15.39,0-25.74,3.26-32.56,10.26-10.76,11.05-10.27,29.29-9.67,52.38C104.09,175.52,104.26,181.86,104.26,188.58Zm164.2-63.26c4.42-4.53,12.34-6.73,24.21-6.73h73.18c11.87,0,19.79,2.2,24.21,6.73,7.33,7.53,6.92,22.8,6.36,43.94-.17,6-.33,12.49-.33,19.32,0,44.64-12.94,102.31-18.51,125a6.46,6.46,0,0,1-12.7-1c-5.14-62-17.12-93.5-35.62-93.5s-30.52,31.47-35.62,93.5a6.46,6.46,0,0,1-12.7,1.06c-5.57-22.74-18.5-80.41-18.5-125,0-6.83-.17-13.29-.34-19.32C261.54,148.12,261.13,132.85,268.46,125.32Zm-146.52,0c4.42-4.53,12.34-6.73,24.21-6.73h73.18c11.87,0,19.79,2.2,24.21,6.73,7.33,7.53,6.92,22.8,6.36,43.94-.17,6-.34,12.49-.34,19.32,0,44.64-12.93,102.31-18.5,125a6.46,6.46,0,0,1-12.7-1.05c-5.1-62-17.09-93.51-35.62-93.51s-30.48,31.47-35.62,93.5a6.46,6.46,0,0,1-12.7,1.06c-5.57-22.74-18.51-80.41-18.51-125,0-6.83-.16-13.29-.33-19.32C115,148.12,114.61,132.85,121.94,125.32Z"/></svg>